<svg xmlns="http://www.w3.org/2000/svg" viewBox="0 0 12 14" fill="none">
  <path fill-rule="evenodd" clip-rule="evenodd" d="M8.5 4C8.5 4.66304 8.2366 5.29892 7.76777 5.76776C7.29893 6.23661 6.66304 6.5 6 6.5C5.33696 6.5 4.70108 6.23661 4.23224 5.76776C3.76339 5.29892 3.5 4.66304 3.5 4C3.5 3.33696 3.76339 2.70107 4.23224 2.23223C4.70108 1.76339 5.33696 1.5 6 1.5C6.66304 1.5 7.29893 1.76339 7.76777 2.23223C8.2366 2.70107 8.5 3.33696 8.5 4ZM8.561 7.073C9.1923 6.54664 9.6461 5.83858 9.8608 5.04514C10.0754 4.25169 10.0403 3.4114 9.7604 2.63858C9.4805 1.86576 8.9693 1.19793 8.2964 0.725938C7.62345 0.253958 6.82145 0.000747681 5.9995 0.000747681C5.17755 0.000747681 4.37555 0.253958 3.70262 0.725938C3.02969 1.19793 2.51849 1.86576 2.23859 2.63858C1.95868 3.4114 1.92364 4.25169 2.13825 5.04514C2.35286 5.83858 2.80669 6.54664 3.438 7.073C2.45359 7.5384 1.61427 8.26275 1.0099 9.1685C0.40553 10.0743 0.05886 11.1273 0.007 12.215C0.00218 12.411 0.0742801 12.6011 0.20788 12.7445C0.34147 12.888 0.52593 12.9735 0.72177 12.9826C0.9176 12.9918 1.10923 12.9239 1.25562 12.7935C1.40201 12.6631 1.49153 12.4806 1.505 12.285C1.55952 11.1295 2.0569 10.0394 2.89391 9.241C3.73091 8.44253 4.84324 7.99707 6 7.99707C7.15676 7.99707 8.2691 8.44253 9.1061 9.241C9.9431 10.0394 10.4405 11.1295 10.495 12.285C10.4975 12.3849 10.5198 12.4832 10.5608 12.5743C10.6018 12.6654 10.6606 12.7474 10.7337 12.8154C10.8068 12.8835 10.8928 12.9363 10.9865 12.9707C11.0803 13.0051 11.18 13.0204 11.2798 13.0157C11.3796 13.0111 11.4774 12.9865 11.5676 12.9435C11.6577 12.9005 11.7384 12.84 11.8048 12.7654C11.8713 12.6908 11.9221 12.6037 11.9544 12.5092C11.9868 12.4147 11.9999 12.3146 11.993 12.215C11.941 11.1272 11.5942 10.0741 10.9897 9.1683C10.3851 8.26255 9.5456 7.53826 8.561 7.073Z" fill="currentColor"/>
</svg>
