<svg xmlns="http://www.w3.org/2000/svg" viewBox="0 0 16 16" fill="none">
  <g clip-path="url(#clip0_949_41)">
    <path fill-rule="evenodd" clip-rule="evenodd" d="M14.6929 4.87127C13.6665 6.28338 12.1709 7.84487 10.9158 9.11616C9.84076 10.2052 8.82733 10.9647 7.93394 11.4308C8.11008 12.5718 7.75867 13.7786 6.8797 14.6576C6.44866 15.0886 5.81457 15.3484 5.22327 15.5186C4.60895 15.6954 3.92858 15.8058 3.30891 15.8761C2.68566 15.9468 2.10357 15.979 1.67856 15.9937C1.46549 16.0011 1.29052 16.0041 1.16795 16.0053C1.10663 16.0059 1.05833 16.006 1.02483 16.006L0.985877 16.0059L0.975121 16.0058L0.971997 16.0058L0.970654 16.0057C0.562444 16.0016 0.232293 15.6714 0.228119 15.2632L0.228106 15.2618L0.228079 15.2587L0.228007 15.248L0.227887 15.209C0.227856 15.1755 0.227976 15.1272 0.22856 15.0659C0.229726 14.9433 0.232746 14.7684 0.240131 14.5553C0.254862 14.1303 0.287144 13.5482 0.357844 12.925C0.428139 12.3053 0.538578 11.625 0.715375 11.0107C0.885553 10.4194 1.14536 9.7853 1.5764 9.35426C2.45285 8.47781 3.65519 8.1259 4.79336 8.29852C5.25397 7.39032 6.00865 6.35651 7.09289 5.25823C8.35535 3.97943 9.91864 2.49403 11.3422 1.48335C12.048 0.982246 12.7706 0.560391 13.4382 0.358443C14.0973 0.159066 14.9072 0.122892 15.5091 0.726396C16.1157 1.33291 16.0578 2.14645 15.8482 2.79504C15.635 3.45521 15.202 4.17096 14.6929 4.87127ZM6.21207 8.82277C6.44926 8.9709 6.6735 9.14806 6.8797 9.35426C7.08295 9.55752 7.258 9.7783 7.40484 10.0118C7.87674 9.74734 8.41793 9.36792 9.01203 8.8505L7.35378 7.19225C6.84452 7.79527 6.47138 8.34434 6.21207 8.82277ZM13.4796 3.98931C12.5897 5.21353 11.2902 6.59421 10.0948 7.812L8.37673 6.09388C9.58187 4.88448 10.9746 3.58393 12.2106 2.70644C12.8719 2.23694 13.4374 1.9258 13.8725 1.7942C14.3161 1.66002 14.4235 1.76206 14.4471 1.78568L14.4485 1.78707C14.4625 1.80077 14.5617 1.89807 14.4209 2.33389C14.2812 2.76638 13.9595 3.32909 13.4796 3.98931ZM3.13986 14.3856C2.62096 14.4445 2.12835 14.4748 1.74361 14.4903C1.75909 14.1055 1.78942 13.613 1.84829 13.0941C1.91371 12.5174 2.01221 11.9282 2.15686 11.4255C2.30814 10.8999 2.48231 10.5697 2.63706 10.4149C3.51574 9.53624 4.94036 9.53624 5.81904 10.4149C6.69772 11.2936 6.69772 12.7182 5.81904 13.5969C5.66429 13.7516 5.33407 13.9258 4.80843 14.0771C4.30579 14.2217 3.71657 14.3202 3.13986 14.3856Z" fill="currentColor"/>
  </g>
</svg>
