<svg viewBox="0 0 1097 230" fill="none" xmlns="http://www.w3.org/2000/svg">
<path fill-rule="evenodd" clip-rule="evenodd" d="M610.07 186.81H609.697C609.865 186.81 609.977 186.978 610.144 187.015L610.256 186.996L610.07 186.81ZM610.144 187.015C608.412 187.034 604.055 187.928 599.455 187.928C584.93 187.928 579.902 181.223 579.902 172.469V114.173H609.511C611.187 114.173 612.491 112.683 612.491 110.634V78.9713C612.491 77.2951 611.001 75.805 609.511 75.805H579.902V36.5063C579.902 35.0163 578.971 34.0851 577.295 34.0851H537.071C535.395 34.0851 534.464 35.0163 534.464 36.5063V76.9225C534.464 76.9225 514.165 81.9513 512.862 82.1376C511.372 82.5101 510.441 83.8138 510.441 85.3038V110.634C510.441 112.683 511.931 114.173 513.607 114.173H534.277V175.263C534.277 220.708 565.935 225.364 587.537 225.364C597.407 225.364 609.325 222.198 611.187 221.266C612.304 220.894 612.863 219.59 612.863 218.286V190.349C612.863 188.505 611.597 187.276 610.144 187.015ZM1051.42 146.021C1051.42 112.31 1037.82 107.84 1023.48 109.33C1012.31 110.075 1003.37 115.663 1003.37 115.663V181.223C1003.37 181.223 1012.5 187.555 1026.09 187.928C1045.27 188.486 1051.42 181.595 1051.42 146.021ZM1096.67 143.041C1096.67 206.925 1076 225.178 1039.87 225.178C1009.33 225.178 992.943 209.719 992.943 209.719C992.943 209.719 992.198 218.286 991.267 219.404C990.708 220.521 989.777 220.894 988.66 220.894H961.099C959.236 220.894 957.56 219.404 957.56 217.728L957.933 10.8038C957.933 9.12755 959.423 7.63755 961.099 7.63755H1000.76C1002.44 7.63755 1003.93 9.12755 1003.93 10.8038L1003.56 80.6476C1003.56 80.6476 1018.83 70.7763 1041.17 70.7763H1041.36C1063.71 70.7763 1096.67 79.1576 1096.67 143.041ZM934.283 75.805H895.176C893.128 75.805 892.01 77.2951 892.01 79.3438V180.664C892.01 180.664 881.768 187.928 867.801 187.928C853.835 187.928 849.738 181.595 849.738 167.626V79.1576C849.738 77.4813 848.248 75.9913 846.572 75.9913H806.72C805.044 75.9913 803.555 77.4813 803.555 79.1576V174.331C803.555 215.306 826.46 225.55 857.932 225.55C883.816 225.55 904.86 211.209 904.86 211.209C904.86 211.209 905.791 218.473 906.349 219.59C906.722 220.521 908.025 221.266 909.329 221.266H934.283C936.331 221.266 937.448 219.776 937.448 218.1L937.821 78.9713C937.821 77.2951 936.331 75.805 934.283 75.805ZM492.936 75.6188H453.271C451.595 75.6188 450.105 77.2951 450.105 79.3438V216.051C450.105 219.776 452.526 221.08 455.692 221.08H491.446C495.171 221.08 496.102 219.404 496.102 216.051V78.7851C496.102 77.1088 494.612 75.6188 492.936 75.6188ZM473.383 12.6663C459.044 12.6663 447.684 24.0276 447.684 38.3688C447.684 52.7101 459.044 64.0713 473.383 64.0713C487.349 64.0713 498.709 52.7101 498.709 38.3688C498.709 24.0276 487.349 12.6663 473.383 12.6663ZM780.463 8.01005H741.17C739.494 8.01005 738.004 9.50005 738.004 11.1763V87.3526H676.365V11.1763C676.365 9.50005 674.875 8.01005 673.199 8.01005H633.534C631.858 8.01005 630.368 9.50005 630.368 11.1763V218.1C630.368 219.776 632.044 221.266 633.534 221.266H673.199C674.875 221.266 676.365 219.776 676.365 218.1V129.631H738.004L737.632 218.1C737.632 219.776 739.122 221.266 740.798 221.266H780.463C782.139 221.266 783.629 219.776 783.629 218.1V11.1763C783.629 9.50005 782.139 8.01005 780.463 8.01005ZM429.062 99.6451V206.553C429.062 207.298 428.876 208.601 427.944 208.974C427.944 208.974 404.667 225.55 366.305 225.55C319.936 225.55 265 211.023 265 115.29C265 19.5576 313.045 -0.18495 359.973 0.00129983C400.57 0.00129983 416.957 9.12755 419.564 10.8038C420.309 11.7351 420.682 12.4801 420.682 13.4113L412.86 46.5638C412.86 48.2401 411.184 50.2888 409.136 49.7301C402.432 47.6813 392.376 43.5838 368.726 43.5838C341.351 43.5838 311.928 51.4063 311.928 113.055C311.928 174.704 339.861 181.968 359.973 181.968C377.106 181.968 383.251 179.919 383.251 179.919V137.081H355.876C353.828 137.081 352.338 135.591 352.338 133.915V99.6451C352.338 97.9688 353.828 96.4788 355.876 96.4788H425.524C427.572 96.4788 429.062 97.9688 429.062 99.6451Z" fill="currentColor"/>
<path d="M107.337 5.35536C109.951 -1.78512 120.05 -1.78512 122.664 5.35536L130.466 26.6657C142.851 60.4937 169.506 87.1496 203.334 99.5343L224.644 107.336C231.785 109.95 231.785 120.049 224.644 122.663L203.334 130.465C169.506 142.85 142.85 169.506 130.466 203.334L122.664 224.644C120.05 231.785 109.951 231.785 107.337 224.644L99.5346 203.334C87.1498 169.506 60.4938 142.85 26.6658 130.465L5.35537 122.663C-1.78512 120.049 -1.78512 109.95 5.35537 107.336L26.6658 99.5343C60.4938 87.1496 87.1498 60.4937 99.5346 26.6657L107.337 5.35536Z" fill="currentColor"/>
</svg>
