<svg xmlns="http://www.w3.org/2000/svg" viewBox="0 0 14 16" fill="none">
  <path fill-rule="evenodd" clip-rule="evenodd" d="M10.536 3.46402C11.0004 3.92833 11.3689 4.47958 11.6202 5.0863C11.8716 5.69301 12.0009 6.3433 12.0009 7.00002C12.0009 7.65674 11.8716 8.30702 11.6202 8.91374C11.3689 9.52045 11.0004 10.0717 10.536 10.536L7 14.07L3.464 10.535C2.99965 10.0707 2.6313 9.51939 2.38 8.91269C2.12869 8.30598 1.99934 7.65571 1.99934 6.99902C1.99934 6.34232 2.12869 5.69206 2.38 5.08535C2.6313 4.47864 2.99965 3.92737 3.464 3.46302C3.92836 2.99866 4.47963 2.63032 5.08633 2.37901C5.69304 2.1277 6.34331 1.99836 7 1.99836C7.6567 1.99836 8.30696 2.1277 8.91367 2.37901C9.5204 2.63032 10.0716 2.99866 10.536 3.46302V3.46402ZM11.596 11.596C12.5051 10.687 13.1242 9.52881 13.3751 8.26792C13.6259 7.00703 13.4972 5.70006 13.0053 4.51231C12.5133 3.32456 11.6802 2.30937 10.6113 1.59511C9.5423 0.880866 8.2856 0.499634 7 0.499634C5.7144 0.499634 4.45767 0.880866 3.38874 1.59511C2.31981 2.30937 1.48669 3.32456 0.99473 4.51231C0.50278 5.70006 0.37409 7.00703 0.62494 8.26792C0.87579 9.52881 1.49491 10.687 2.404 11.596L5.939 15.132C6.0783 15.2714 6.2437 15.382 6.42576 15.4574C6.60781 15.5329 6.80294 15.5717 7 15.5717C7.19707 15.5717 7.3922 15.5329 7.57425 15.4574C7.7563 15.382 7.9217 15.2714 8.061 15.132L11.596 11.596ZM7 9.00002C7.53044 9.00002 8.03914 8.7893 8.41422 8.41423C8.78929 8.03916 9 7.53045 9 7.00002C9 6.46958 8.78929 5.96089 8.41422 5.5858C8.03914 5.21073 7.53044 5.00002 7 5.00002C6.46957 5.00002 5.96086 5.21073 5.58579 5.5858C5.21072 5.96089 5 6.46958 5 7.00002C5 7.53045 5.21072 8.03916 5.58579 8.41423C5.96086 8.7893 6.46957 9.00002 7 9.00002Z" fill="currentColor"/>
</svg>
