<svg xmlns="http://www.w3.org/2000/svg" viewBox="0 0 13 14" fill="none">
  <path fill-rule="evenodd" clip-rule="evenodd" d="M0 1.75C0 0.7835 0.7835 0 1.75 0H4.25C4.66421 0 5 0.33579 5 0.75C5 1.16421 4.66421 1.5 4.25 1.5H1.75C1.61193 1.5 1.5 1.61193 1.5 1.75V12.25C1.5 12.3881 1.61193 12.5 1.75 12.5H4.25C4.66421 12.5 5 12.8358 5 13.25C5 13.6642 4.66421 14 4.25 14H1.75C0.7835 14 0 13.2165 0 12.25V1.75ZM10.4393 6.25H4.75002C4.33581 6.25 4.00002 6.58579 4.00002 7C4.00002 7.41422 4.33581 7.75 4.75002 7.75H10.4393L8.4697 9.7197C8.1768 10.0126 8.1768 10.4874 8.4697 10.7803C8.7626 11.0732 9.2374 11.0732 9.5303 10.7803L12.7803 7.53033C13.0732 7.23744 13.0732 6.76256 12.7803 6.46967L9.5303 3.21967C9.2374 2.92678 8.7626 2.92678 8.4697 3.21967C8.1768 3.51256 8.1768 3.98744 8.4697 4.28033L10.4393 6.25Z" fill="currentColor"/>
</svg>
