<svg xmlns="http://www.w3.org/2000/svg" viewBox="0 0 16 12" fill="none">
  <path fill-rule="evenodd" clip-rule="evenodd" d="M5.49999 1.5C4.96956 1.5 4.46085 1.71071 4.08578 2.08578C3.71071 2.46086 3.49999 2.96956 3.49999 3.5C3.49999 4.03043 3.71071 4.53914 4.08578 4.91421C4.46085 5.28928 4.96956 5.5 5.49999 5.5C6.03042 5.5 6.53913 5.28928 6.91421 4.91421C7.28928 4.53914 7.49999 4.03043 7.49999 3.5C7.49999 2.96956 7.28928 2.46086 6.91421 2.08578C6.53913 1.71071 6.03042 1.5 5.49999 1.5ZM1.99999 3.5C1.99992 2.91987 2.14405 2.34882 2.41942 1.83821C2.69479 1.32761 3.09276 0.893464 3.57754 0.574814C4.06232 0.256164 4.61871 0.0630138 5.19665 0.0127438C5.7746 -0.0375362 6.35598 0.056634 6.8885 0.286774C7.42102 0.516924 7.88799 0.875824 8.24739 1.33121C8.6068 1.78659 8.84738 2.32417 8.94749 2.89559C9.0476 3.46702 9.0041 4.05437 8.8209 4.60481C8.63771 5.15525 8.32056 5.65153 7.89799 6.049C8.69485 6.43558 9.38671 7.00867 9.91488 7.71963C10.4431 8.4306 10.792 9.2585 10.932 10.133C10.9632 10.3295 10.915 10.5304 10.798 10.6914C10.6811 10.8524 10.505 10.9603 10.3085 10.9915C10.112 11.0227 9.91111 10.9745 9.75011 10.8575C9.58911 10.7406 9.48115 10.5645 9.44999 10.368C9.29867 9.4294 8.81804 8.5753 8.09424 7.95882C7.37043 7.34235 6.45074 7.00379 5.49999 7.00379C4.54924 7.00379 3.62956 7.34235 2.90575 7.95882C2.18194 8.5753 1.70131 9.4294 1.54999 10.368C1.5345 10.4653 1.49998 10.5586 1.44843 10.6426C1.39687 10.7266 1.32928 10.7996 1.24952 10.8574C1.16975 10.9153 1.07937 10.9568 0.983542 10.9797C0.88771 11.0027 0.788301 11.0065 0.690991 10.991C0.593682 10.9755 0.500377 10.941 0.416405 10.8894C0.332433 10.8379 0.259438 10.7703 0.201587 10.6905C0.143736 10.6108 0.102162 10.5204 0.07924 10.4245C0.0563177 10.3287 0.0524954 10.2293 0.0679914 10.132C0.208326 9.2578 0.557366 8.4304 1.08552 7.71976C1.61368 7.00917 2.30538 6.4364 3.10199 6.05C2.75352 5.72304 2.4759 5.328 2.28635 4.88937C2.09679 4.45073 1.99932 3.97784 1.99999 3.5ZM11 2C10.8011 2 10.6103 2.07901 10.4697 2.21967C10.329 2.36032 10.25 2.55108 10.25 2.75C10.25 2.94891 10.329 3.13967 10.4697 3.28033C10.6103 3.42098 10.8011 3.5 11 3.5C11.3383 3.50002 11.6667 3.61443 11.9319 3.82465C12.197 4.03487 12.3833 4.32854 12.4604 4.65798C12.5375 4.98742 12.501 5.33327 12.3568 5.63934C12.2126 5.94542 11.9692 6.19375 11.666 6.344C11.541 6.40618 11.4358 6.50203 11.3623 6.62075C11.2888 6.73948 11.2499 6.87636 11.25 7.016V7.368C11.2498 7.53646 11.3063 7.70009 11.4104 7.83252C11.5145 7.96495 11.6602 8.0585 11.824 8.098C13.024 8.387 13.986 9.298 14.346 10.47C14.3745 10.5645 14.4215 10.6525 14.4841 10.7289C14.5468 10.8052 14.6239 10.8685 14.7111 10.915C14.7982 10.9614 14.8937 10.9902 14.992 10.9997C15.0903 11.0092 15.1895 10.9991 15.284 10.9702C15.3784 10.9412 15.4662 10.8939 15.5422 10.8309C15.6183 10.7679 15.6812 10.6905 15.7273 10.6031C15.7734 10.5158 15.8018 10.4202 15.8108 10.3218C15.8199 10.2235 15.8094 10.1243 15.78 10.03C15.5798 9.3806 15.2496 8.7787 14.8095 8.261C14.3694 7.74317 13.8286 7.32028 13.22 7.018C13.6109 6.58794 13.8686 6.05357 13.9615 5.47985C14.0545 4.90613 13.9788 4.31776 13.7437 3.78625C13.5085 3.25474 13.124 2.80298 12.637 2.48587C12.1499 2.16876 11.5812 1.99996 11 2Z" fill="currentColor"/>
</svg>
