<svg viewBox="0 0 625 337" fill="none" xmlns="http://www.w3.org/2000/svg">
  <path fill-rule="evenodd" clip-rule="evenodd"
    d="M431.612 100.473C412.404 103.629 401.639 126.978 390.886 141.199C319.677 235.353 278.152 353.662 135.647 333.991C81.2108 326.475 26.6808 280.902 8.94173 228.994C-26.5441 125.186 47.5016 1.44546 161.899 1.8078L307.614 2.7156C310.583 2.73119 315.605 8.91822 317.569 10.8585V26.2481C247.657 116.19 291.932 93.9003 151.941 97.7536C131.179 98.3263 102.402 133.236 97.633 152.062C86.081 197.685 127.586 250.727 176.377 236.241C274.065 207.238 309.609 0 424.369 0C469.638 0 502.771 17.7819 527.546 56.1158C553.222 95.8367 610.705 161.845 621.676 204.554C633.158 249.266 606.7 300.43 568.28 323.132C547.249 335.549 517.989 337.045 494.055 336.702L366.442 334.895C353.74 334.715 334.201 314.035 331.139 302.311C325.692 281.393 332.655 258.722 350.148 246.192C369.247 232.512 397.548 238.59 419.846 238.049L507.637 236.241C513.45 236.116 518.624 224.775 518.495 219.94C518.231 210.086 504.333 192.924 498.582 184.641C481.069 159.445 458.332 113.825 431.612 100.473Z"
    fill="white" />
</svg>